<?xml version="1.0" encoding="utf-8"?>
<!-- Generator: Adobe Illustrator 19.1.0, SVG Export Plug-In . SVG Version: 6.00 Build 0)  -->
<svg version="1.1" id="Forma_1_1_" xmlns="http://www.w3.org/2000/svg" xmlns:xlink="http://www.w3.org/1999/xlink" x="0px" y="0px"
	 viewBox="0 0 17 17" style="enable-background:new 0 0 17 17;" xml:space="preserve">
<style type="text/css">
	.st0{fill-rule:evenodd;clip-rule:evenodd;fill:#B3B3B3;}
</style>
<g id="Forma_1">
	<g>
		<path class="st0" d="M15,1.8c-1-1-2.3-1.5-3.7-1.5c-1.4,0-2.7,0.5-3.7,1.5c-1,1-1.5,2.3-1.5,3.7c0,0.7,0.1,1.4,0.4,2l-5.7,5.7
			c-0.1,0.1-0.2,0.2-0.2,0.4l-0.2,2c0,0.2,0,0.4,0.2,0.5c0.1,0.1,0.3,0.2,0.5,0.2l2-0.2c0.1,0,0.3-0.1,0.4-0.2l0.6-0.6
			c0,0,0,0,0-0.1l-0.1-1.5c0-0.1,0-0.2,0.1-0.2c0.1-0.1,0.1-0.1,0.2-0.1l1.5,0.1c0,0,0,0,0.1,0L6.4,13c0,0,0,0,0-0.1l-0.1-1.5
			c0-0.1,0-0.2,0.1-0.2c0.1-0.1,0.1-0.1,0.2-0.1l1.5,0.1c0,0,0,0,0.1,0l1.1-1.1c0.6,0.3,1.3,0.4,2,0.4c1.4,0,2.7-0.5,3.7-1.5
			C17,7.1,17,3.8,15,1.8z M12.8,6.9c-0.4,0.4-0.9,0.6-1.5,0.6c-0.6,0-1.1-0.2-1.5-0.6C9.4,6.5,9.2,6,9.2,5.4s0.2-1.1,0.6-1.5
			c0.4-0.4,0.9-0.6,1.5-0.6c0.6,0,1.1,0.2,1.5,0.6C13.6,4.7,13.6,6.1,12.8,6.9z"/>
	</g>
</g>
</svg>
