<?xml version="1.0" encoding="utf-8"?>
<!-- Generator: Adobe Illustrator 19.1.0, SVG Export Plug-In . SVG Version: 6.00 Build 0)  -->
<svg version="1.1" id="Forma_1_1_" xmlns="http://www.w3.org/2000/svg" xmlns:xlink="http://www.w3.org/1999/xlink" x="0px" y="0px"
	 viewBox="0 0 19 17" style="enable-background:new 0 0 19 17;" xml:space="preserve">
<style type="text/css">
	.st0{fill-rule:evenodd;clip-rule:evenodd;fill:#B3B3B3;}
</style>
<g id="Forma_1">
	<g>
		<path class="st0" d="M18.1,14.1c0-0.8-0.5-0.8-1.2-1l-3-1.2c-0.1,0-0.1,0-0.2-0.1v0c-0.5-0.2-1-0.6-1.2-0.8l0,0l0,0c0,0,0,0,0,0
			l0,0l0,0l0,0v0c-0.1-0.1-0.2-0.2-0.2-0.2l0,0l0,0l0,0l0,0l0,0l0,0c-0.1,0-0.1,0-0.1-0.1C12.2,10.5,12,10.1,12,10
			c0-0.1-0.1,0.2-0.1-0.1l0-0.6c0.1-0.1,0.1-0.1,0.1-0.1c0.2-0.2,0.2-0.8,0.3-1C12.5,8,12.7,8,12.9,7.3c0.2-0.7,0.4-1.6,0.2-1.6
			c-0.1,0-0.1,0-0.2,0.1C12.9,5.6,13,5,13,4.6c0-0.5-0.1-1.9-0.4-2.4c-0.2-0.3-0.6-0.6-1-0.9C11.5,1.1,11.2,1,11,0.9
			c-0.6-0.3-2.3-0.1-2.9,0C7.4,1.1,6.9,1.5,6.6,2C6.3,2.5,6.2,4,6.2,4.6c0,0.2,0.2,0.7,0.2,0.9c0,0.1,0,0.1,0.1,0.2c0,0-0.1,0-0.1,0
			c-0.3,0,0,1,0.2,1.6C6.8,8,7,8,7.1,8.2c0.1,0.1,0.1,0.7,0.3,1c0,0,0.1,0.1,0.1,0.1l0,0.5L7.6,10c0-0.1-0.1-0.1-0.1,0
			c-0.1,0.3-0.2,0.5-0.3,0.8c0,0,0,0,0,0c-0.1-0.1-0.2,0-0.3,0.2c-0.1,0.2-0.6,0.6-1.2,0.9l0,0l0,0l0,0c0,0-0.1,0-0.1,0.1l-3,1.2
			c-0.6,0.3-1.2,0.3-1.2,1l-0.5,2.6h17.9L18.1,14.1z"/>
	</g>
</g>
</svg>
