<?xml version="1.0" encoding="utf-8"?>
<!-- Generator: Adobe Illustrator 19.1.0, SVG Export Plug-In . SVG Version: 6.00 Build 0)  -->
<svg version="1.1" id="Forma_1_1_" xmlns="http://www.w3.org/2000/svg" xmlns:xlink="http://www.w3.org/1999/xlink" x="0px" y="0px"
	 viewBox="0 0 15 17" style="enable-background:new 0 0 15 17;" xml:space="preserve">
<style type="text/css">
	.st0{fill-rule:evenodd;clip-rule:evenodd;fill:#B3B3B3;}
</style>
<g id="Forma_1">
	<g>
		<path class="st0" d="M7.4,0C3.3,0,0,3.3,0,7.4c0,2.8,1.5,5.2,3.8,6.5L3.7,17l3.5-2.2c0.1,0,0.1,0,0.2,0c4,0,7.3-3.3,7.3-7.4
			C14.7,3.3,11.4,0,7.4,0z M7,11.9c-0.7,0-1.1-0.5-1.1-1.1c0-0.7,0.5-1.1,1.1-1.1c0.7,0,1.1,0.5,1.1,1.1C8.1,11.4,7.7,11.9,7,11.9z
			 M8.5,7.2c-0.5,0.5-0.6,1-0.6,1.6V9H6.2l0-0.3c0-0.6,0.2-1.3,0.7-2c0.4-0.5,0.7-0.9,0.7-1.3c0-0.4-0.3-0.7-0.9-0.7
			c-0.4,0-0.9,0.1-1.2,0.4L5.1,3.7c0.4-0.3,1.2-0.5,2.1-0.5c1.6,0,2.4,0.9,2.4,2C9.6,6.1,9,6.7,8.5,7.2z"/>
	</g>
</g>
</svg>
