<?xml version="1.0" encoding="utf-8"?>
<!-- Generator: Adobe Illustrator 19.1.0, SVG Export Plug-In . SVG Version: 6.00 Build 0)  -->
<svg version="1.1" id="Forma_1_copy_1_" xmlns="http://www.w3.org/2000/svg" xmlns:xlink="http://www.w3.org/1999/xlink" x="0px"
	 y="0px" viewBox="0 0 12 18" style="enable-background:new 0 0 12 18;" xml:space="preserve">
<style type="text/css">
	.st0{fill-rule:evenodd;clip-rule:evenodd;fill:#B3B3B3;}
</style>
<g id="Forma_1_copy">
	<g>
		<path class="st0" d="M10.1,0.5H1.6C1,0.5,0.5,1,0.5,1.6v14.9c0,0.6,0.5,1.1,1.1,1.1h8.5c0.6,0,1.1-0.5,1.1-1.1V1.6
			C11.2,1,10.7,0.5,10.1,0.5z M4,1.6h3.7C7.9,1.6,8,1.7,8,1.8S7.9,2.1,7.7,2.1H4C3.8,2.1,3.7,2,3.7,1.8S3.8,1.6,4,1.6z M5.9,17
			c-0.4,0-0.8-0.4-0.8-0.8c0-0.4,0.4-0.8,0.8-0.8c0.4,0,0.8,0.4,0.8,0.8C6.7,16.6,6.3,17,5.9,17z M10.1,14.9H1.6V3.1h8.5V14.9z"/>
	</g>
</g>
</svg>
