<?xml version="1.0" encoding="utf-8"?>
<!-- Generator: Adobe Illustrator 19.1.0, SVG Export Plug-In . SVG Version: 6.00 Build 0)  -->
<svg version="1.1" id="Forma_1_1_" opacity="0.1" xmlns="http://www.w3.org/2000/svg" xmlns:xlink="http://www.w3.org/1999/xlink"
	 x="0px" y="0px" viewBox="0 0 18 17" style="enable-background:new 0 0 18 17;" xml:space="preserve">
<style type="text/css">
	.st0{fill-rule:evenodd;clip-rule:evenodd;}
</style>
<g id="Forma_1">
	<g>
		<path class="st0" d="M12.9,10.1c0.6-1.1,1-2.2,1-3.4c0-1.8-0.7-3.4-2-4.7C10.6,0.7,9,0.1,7.2,0.1C5.4,0.1,3.8,0.7,2.5,2
			c-1.3,1.3-2,2.9-2,4.7s0.7,3.4,2,4.7c1.3,1.3,2.9,2,4.7,2c1.2,0,2.4-0.3,3.4-1l4.6,4.6l2.3-2.3L12.9,10.1z M10.1,9.6
			c-0.8,0.8-1.8,1.2-2.9,1.2c-1.1,0-2.1-0.4-2.9-1.2C3.5,8.8,3.1,7.8,3.1,6.7s0.4-2.1,1.2-2.9C5.1,3,6.1,2.6,7.2,2.6
			c1.1,0,2.1,0.4,2.9,1.2c0.8,0.8,1.2,1.8,1.2,2.9S10.9,8.8,10.1,9.6z"/>
	</g>
</g>
</svg>
